<!DOCTYPE svg PUBLIC "-//W3C//DTD SVG 1.1//EN" "http://www.w3.org/Graphics/SVG/1.1/DTD/svg11.dtd">

<!-- Uploaded to: SVG Repo, www.svgrepo.com, Transformed by: SVG Repo Mixer Tools -->
<svg fill="#ffffff" height="800px" width="800px" version="1.1" id="Layer_1" xmlns="http://www.w3.org/2000/svg" xmlns:xlink="http://www.w3.org/1999/xlink" viewBox="0 0 511.999 511.999" xml:space="preserve" stroke="#ffffff">

<g id="SVGRepo_bgCarrier" stroke-width="0"/>

<g id="SVGRepo_tracerCarrier" stroke-linecap="round" stroke-linejoin="round"/>

<g id="SVGRepo_iconCarrier"> <g> <g> <path d="M435.753,426.491c4.428,0,8.017-3.589,8.017-8.017V314.3c0-9.176-3.779-18.149-10.367-24.612 c-4.397-4.316-9.722-7.281-15.466-8.693v-136.16c0-2.29-0.979-4.47-2.691-5.991L261.325,2.025c-3.038-2.7-7.614-2.7-10.652,0 L96.753,138.843c-1.711,1.521-2.69,3.702-2.69,5.991v136.818c0,4.427,3.588,8.017,8.017,8.017s8.017-3.589,8.017-8.017V148.435 L256,18.743l145.904,129.692v132.656c-4.604,1.169-8.846,3.278-12.488,6.135c-5.222-11.562-16.602-19.789-29.771-20.119 c-7.092-0.178-13.678,1.796-19.186,5.352c-2.728-11.836-11.765-21.793-23.459-25.265c-3.234-0.961-6.614-1.413-9.988-1.343 c-6.282,0.119-12.162,1.996-17.167,5.15v-12.639h30.288c4.428,0,8.017-3.589,8.017-8.017V127.732c0-4.427-3.588-8.017-8.017-8.017 H191.866c-4.428,0-8.017,3.589-8.017,8.017v102.614c0,4.427,3.588,8.017,8.017,8.017h30.641v128.813l-28.994-28.994 c-11.801-11.801-30.253-15.071-45.378-7.964c-4.196,1.972-8.031,4.686-11.308,7.963l-13.606,13.605 c-3.087,3.086-3.087,8.251-0.001,11.338l21.678,21.677h-34.803v-60.393c0-4.427-3.588-8.017-8.017-8.017s-8.017,3.589-8.017,8.017 v68.409c0,4.427,3.588,8.017,8.017,8.017h58.789c0.02,0,0.041-0.003,0.061-0.003l61.578,61.578v41.574 c0,4.427,3.588,8.017,8.017,8.017h205.228c4.427,0,8.017-3.589,8.017-8.017l0.001-42.756c0-4.427-3.588-8.017-8.017-8.017 c-4.427,0-8.017,3.589-8.017,8.017l-0.001,34.739H238.54v-36.877c0-2.126-0.844-4.165-2.347-5.668l-95.965-95.965l7.938-7.935 c9.269-9.271,24.742-9.271,34.01,0l42.68,42.68c4.947,4.945,13.686,1.32,13.686-5.668v-190.39c0-9.542,7.758-17.453,17.294-17.634 c9.874-0.177,17.981,8.495,17.981,18.212v125.552c0,4.427,3.588,8.017,8.017,8.017c4.428,0,8.017-3.589,8.017-8.017l0.177-42.756 c0-9.542,7.758-17.453,17.294-17.633c9.872-0.219,17.98,8.524,17.98,18.212l-0.177,42.179c0,4.427,3.588,8.017,8.017,8.017 c4.428,0,8.017-3.589,8.017-8.017v-22.812c0.052-0.247,0.095-0.497,0.124-0.751c1.054-9.107,8.766-15.798,17.967-15.573 c9.475,0.236,17.182,8.415,17.182,18.231v20.905c0,4.427,3.588,8.017,8.017,8.017c4.428,0,8.017-3.589,8.017-8.017v-8.551 c0-0.003,0-0.006,0-0.011c0.005-9.538,7.76-17.442,17.293-17.623c9.873-0.179,17.981,8.497,17.981,18.212v104.174 C427.737,422.902,431.325,426.491,435.753,426.491z M222.507,196.141v26.188h-22.624v-35.3c0.177,0.012,23.897,0.027,23.897,0.027 C222.957,189.954,222.507,192.999,222.507,196.141z M247.983,163.502c-5.312,1.349-10.132,3.972-14.117,7.521 c0,0-33.806,0.015-33.983,0.027v-35.3h48.1V163.502z M278.321,171.022c-4.159-3.727-9.058-6.314-14.305-7.605v-27.668h48.1v35.273 H278.321z M312.117,187.056v35.273h-22.268v-25.61c0-3.284-0.492-6.538-1.415-9.664H312.117z"/> </g> </g> <g> <g> <path d="M496.487,51.377c-5.443-0.723-19.158-3.753-28.951-16.239c-6.958-8.877-8.628-18.505-9.004-23.453 c-0.316-4.182-3.801-7.411-7.993-7.411s-7.677,3.229-7.994,7.41c-0.376,4.948-2.046,14.575-9.003,23.452 c-9.794,12.488-23.509,15.518-28.952,16.241c-3.984,0.529-6.961,3.927-6.961,7.946s2.977,7.417,6.962,7.947 c5.442,0.723,19.158,3.754,28.951,16.239c6.958,8.877,8.628,18.505,9.004,23.453c0.317,4.18,3.802,7.41,7.994,7.41 s7.677-3.229,7.994-7.41c0.376-4.948,2.046-14.575,9.003-23.452c9.794-12.488,23.509-15.518,28.952-16.241 c3.983-0.528,6.96-3.927,6.96-7.946S500.472,51.906,496.487,51.377z M454.919,73.617c-1.667,2.127-3.119,4.277-4.38,6.421 c-1.261-2.143-2.713-4.294-4.38-6.421c0,0,0-0.001-0.001-0.001c-5.031-6.414-10.793-11.006-16.419-14.293 c8.564-5.001,15.77-12.164,20.801-20.715c5.032,8.551,12.236,15.714,20.801,20.715C465.711,62.61,459.95,67.202,454.919,73.617z"/> </g> </g> <g> <g> <path d="M107.41,51.376c-5.443-0.723-19.158-3.753-28.951-16.239c-6.958-8.877-8.628-18.505-9.004-23.453 c-0.316-4.18-3.801-7.41-7.993-7.41s-7.677,3.229-7.994,7.41c-0.376,4.948-2.046,14.575-9.003,23.452 c-9.794,12.488-23.509,15.518-28.952,16.241c-3.984,0.529-6.961,3.927-6.961,7.946s2.977,7.418,6.962,7.947 c5.442,0.723,19.158,3.754,28.951,16.239c6.959,8.877,8.628,18.505,9.004,23.453c0.316,4.18,3.801,7.41,7.993,7.41 s7.677-3.229,7.994-7.41c0.376-4.948,2.046-14.575,9.003-23.452c9.794-12.488,23.509-15.518,28.952-16.241 c3.984-0.528,6.961-3.927,6.961-7.946S111.394,51.906,107.41,51.376z M61.461,80.038c-1.261-2.143-2.713-4.294-4.38-6.421 c0,0,0-0.001-0.001-0.001c-5.031-6.415-10.792-11.007-16.419-14.293c5.628-3.286,11.389-7.879,16.42-14.294 c1.667-2.127,3.119-4.277,4.38-6.421c5.032,8.551,12.236,15.714,20.801,20.715C73.698,64.325,66.491,71.487,61.461,80.038z"/> </g> </g> <g> <g> <path d="M107.41,440.454c-5.443-0.723-19.158-3.753-28.951-16.239c-6.958-8.877-8.628-18.505-9.004-23.453 c-0.316-4.182-3.801-7.411-7.993-7.411s-7.677,3.229-7.994,7.41c-0.376,4.948-2.046,14.575-9.003,23.452 c-9.794,12.488-23.509,15.518-28.952,16.241c-3.984,0.529-6.961,3.927-6.961,7.946c0,4.019,2.977,7.417,6.962,7.947 c5.442,0.723,19.158,3.754,28.951,16.239c6.959,8.877,8.628,18.505,9.004,23.453c0.316,4.18,3.801,7.41,7.993,7.41 s7.677-3.229,7.994-7.41c0.376-4.948,2.046-14.575,9.003-23.452c9.794-12.488,23.509-15.518,28.952-16.241 c3.985-0.529,6.962-3.927,6.962-7.947S111.394,440.983,107.41,440.454z M65.841,462.695c-1.667,2.127-3.119,4.277-4.38,6.421 c-1.261-2.143-2.713-4.294-4.38-6.421c0,0,0-0.001-0.001-0.001c-5.031-6.414-10.793-11.006-16.419-14.293 c8.564-5.001,15.77-12.164,20.801-20.715c5.022,8.533,12.252,15.723,20.801,20.715C76.634,451.687,70.873,456.279,65.841,462.695z "/> </g> </g> </g>

</svg>