<!DOCTYPE svg PUBLIC "-//W3C//DTD SVG 1.1//EN" "http://www.w3.org/Graphics/SVG/1.1/DTD/svg11.dtd">
<!-- Uploaded to: SVG Repo, www.svgrepo.com, Transformed by: SVG Repo Mixer Tools -->
<svg fill="#ffffff" height="800px" width="800px" version="1.1" id="Layer_1" xmlns="http://www.w3.org/2000/svg" xmlns:xlink="http://www.w3.org/1999/xlink" viewBox="0 0 512 512" xml:space="preserve" stroke="#ffffff">
<g id="SVGRepo_bgCarrier" stroke-width="0"/>
<g id="SVGRepo_tracerCarrier" stroke-linecap="round" stroke-linejoin="round"/>
<g id="SVGRepo_iconCarrier"> <g> <g> <path d="M503.983,393.353h-17.637V75.357c0-13.262-10.789-24.05-24.05-24.05H49.704c-13.261,0-24.05,10.788-24.05,24.05v206.296 c0,4.427,3.588,8.017,8.017,8.017c4.428,0,8.017-3.589,8.017-8.017V110.452h428.626v282.901H41.687v-68.944 c0-4.427-3.588-8.017-8.017-8.017c-4.428,0-8.017,3.589-8.017,8.017v68.944H8.017c-4.428,0-8.017,3.589-8.017,8.017v35.273 c0,13.262,10.789,24.05,24.05,24.05h368.768c4.428,0,8.017-3.589,8.017-8.017c0-4.427-3.588-8.017-8.017-8.017H24.05 c-4.421,0-8.017-3.596-8.017-8.017v-27.257h197.745v17.637c0,4.427,3.588,8.017,8.017,8.017h68.409 c4.428,0,8.017-3.589,8.017-8.017v-17.637h197.745v27.257c0,4.421-3.596,8.017-8.017,8.017h-52.376 c-4.428,0-8.017,3.589-8.017,8.017c0,4.427,3.588,8.017,8.017,8.017h52.376c13.261,0,24.05-10.788,24.05-24.05V401.37 C512,396.942,508.412,393.353,503.983,393.353z M282.188,419.006h-52.376v-9.62h52.376V419.006z M470.313,94.419H41.687V75.357 c0-4.421,3.596-8.017,8.017-8.017h412.593c4.421,0,8.017,3.596,8.017,8.017V94.419z"/> </g> </g> <g> <g> <path d="M327.994,214.625l-68.409-34.205c-2.256-1.129-4.915-1.129-7.171,0l-68.409,34.205c-2.715,1.358-4.432,4.133-4.432,7.17 V332.96c0,4.427,3.588,8.017,8.017,8.017h51.307c4.428,0,8.017-3.589,8.017-8.017v-51.841h18.171v51.841 c0.001,4.427,3.589,8.017,8.018,8.017h51.307c4.428,0,8.017-3.589,8.017-8.017V221.795 C332.426,218.759,330.71,215.983,327.994,214.625z M316.393,324.944h-35.273v-51.841c0-4.427-3.588-8.017-8.017-8.017h-34.205 c-4.428,0-8.017,3.589-8.017,8.017v51.841h-35.273V226.75L256,196.554l60.393,30.196V324.944z"/> </g> </g> <g> <g> <path d="M353.902,197.656l-94.063-51.307c-2.394-1.306-5.284-1.306-7.679,0l-94.063,51.307c-3.886,2.12-5.319,6.99-3.198,10.876 c2.121,3.887,6.988,5.321,10.877,3.199L256,162.518l90.223,49.213c1.22,0.666,2.534,0.98,3.832,0.98 c2.839,0,5.589-1.511,7.045-4.179C359.22,204.645,357.789,199.775,353.902,197.656z"/> </g> </g> <g> <g> <path d="M432.691,258.883l-25.653-25.653c-3.132-3.131-8.207-3.131-11.338,0s-3.131,8.207,0,11.337l19.985,19.985L395.7,284.536 c-3.13,3.13-3.13,8.207,0,11.337c3.089,3.088,8.249,3.088,11.338,0l25.653-25.653 C435.822,267.089,435.822,262.013,432.691,258.883z"/> </g> </g> <g> <g> <path d="M96.314,264.551l19.985-19.985c3.131-3.13,3.131-8.207,0.001-11.337c-3.132-3.131-8.207-3.131-11.338,0l-25.653,25.653 c-3.131,3.131-3.131,8.207,0,11.337l25.653,25.653c3.261,3.26,8.766,3.041,11.764-0.46c2.686-3.137,2.493-7.959-0.425-10.877 L96.314,264.551z"/> </g> </g> </g>
</svg>